<svg id="Capa_1" enable-background="new 0 0 511.998 511.998" height="512" viewBox="0 0 511.998 511.998" width="512" xmlns="http://www.w3.org/2000/svg" xmlns:xlink="http://www.w3.org/1999/xlink"><radialGradient id="SVGID_1_" cx="44.994" cy="51.66" gradientTransform="matrix(.702 -.712 .557 .549 10.938 68.73)" gradientUnits="userSpaceOnUse" r="226.024"><stop offset=".0132" stop-color="#fffbe4"/><stop offset=".6064" stop-color="#f9efaf"/><stop offset=".7207" stop-color="#f9eeab"/><stop offset=".8394" stop-color="#f8ec9e"/><stop offset=".9597" stop-color="#f7e98a"/><stop offset="1" stop-color="#f6e781"/></radialGradient><radialGradient id="SVGID_2_" cx="-45.952" cy="244.073" gradientTransform="matrix(1 -.008 .005 .66 26.551 96.64)" gradientUnits="userSpaceOnUse" r="405.566"><stop offset="0" stop-color="#f6e266"/><stop offset=".1349" stop-color="#f5dc60"/><stop offset=".3156" stop-color="#f0cb51"/><stop offset=".5216" stop-color="#e9af37"/><stop offset=".5854" stop-color="#e7a52e"/><stop offset="1" stop-color="#e7a52e"/></radialGradient><radialGradient id="SVGID_3_" cx="306.849" cy="255.963" gradientTransform="matrix(1 -.008 .008 1 25.932 13.725)" gradientUnits="userSpaceOnUse" r="373.342"><stop offset="0" stop-color="#f6e266"/><stop offset=".377" stop-color="#f4dd45"/><stop offset=".4963" stop-color="#f2d340"/><stop offset=".6976" stop-color="#ecb934"/><stop offset=".8996" stop-color="#e49824"/></radialGradient><linearGradient id="lg1"><stop offset="0" stop-color="#d8aa8b"/><stop offset=".2127" stop-color="#cc9772"/><stop offset=".5905" stop-color="#b16e3d"/><stop offset=".6258" stop-color="#ad6b3b"/><stop offset="1" stop-color="#804f2b"/></linearGradient><radialGradient id="SVGID_4_" cx="2520.049" cy="167.211" gradientTransform="matrix(-.978 -.209 -.246 1.147 2705.8 507.347)" gradientUnits="userSpaceOnUse" r="38.803" xlink:href="#lg1"/><radialGradient id="SVGID_5_" cx="233.733" cy="-2976.071" gradientTransform="matrix(1 0 0 -.438 0 -1102.227)" gradientUnits="userSpaceOnUse" r="70.136" xlink:href="#lg1"/><radialGradient id="SVGID_6_" cx="2529.963" cy="176.393" gradientTransform="matrix(.978 -.209 .246 1.147 -2124.533 510.33)" gradientUnits="userSpaceOnUse" r="38.803" xlink:href="#lg1"/><radialGradient id="SVGID_7_" cx="210.862" cy="-2977.922" gradientTransform="matrix(-1 0 0 -.438 586.016 -1100.92)" gradientUnits="userSpaceOnUse" r="70.136" xlink:href="#lg1"/><radialGradient id="SVGID_8_" cx="246.806" cy="2752.489" gradientTransform="matrix(.931 -.007 .001 .112 24.898 155.648)" gradientUnits="userSpaceOnUse" r="234.348"><stop offset="0" stop-color="#ecb780"/><stop offset=".3347" stop-color="#faddb9"/><stop offset=".4962" stop-color="#ffecd0"/><stop offset=".888" stop-color="#fff"/></radialGradient><radialGradient id="SVGID_9_" cx="317.653" cy="371.817" gradientTransform="matrix(0 -1 .836 0 6.69 689.47)" gradientUnits="userSpaceOnUse" r="118.375"><stop offset="0" stop-color="#d8aa8b"/><stop offset=".1426" stop-color="#cd9975"/><stop offset=".4378" stop-color="#b97a4d"/><stop offset=".5905" stop-color="#b16e3d"/><stop offset=".6258" stop-color="#ad6b3b"/><stop offset="1" stop-color="#804f2b"/></radialGradient><radialGradient id="SVGID_10_" cx="301.391" cy="308.067" gradientTransform="matrix(1 0 0 1.277 0 -85.249)" gradientUnits="userSpaceOnUse" r="52.439"><stop offset="0" stop-color="#ffece7"/><stop offset=".377" stop-color="#fbe2da"/><stop offset=".5212" stop-color="#f7dcd4"/><stop offset=".7075" stop-color="#eaccc4"/><stop offset=".916" stop-color="#d5b2aa"/><stop offset="1" stop-color="#cba59d"/></radialGradient><linearGradient id="lg2"><stop offset="0" stop-color="#fff"/><stop offset=".1148" stop-color="#ecf8fe"/><stop offset=".3464" stop-color="#bbe7fb"/><stop offset=".5278" stop-color="#90d8f9"/><stop offset="1" stop-color="#61a2f9"/></linearGradient><radialGradient id="SVGID_11_" cx="154.518" cy="253.712" gradientTransform="matrix(1 0 0 1.573 0 -145.319)" gradientUnits="userSpaceOnUse" r="139.299" xlink:href="#lg2"/><radialGradient id="SVGID_12_" cx="352.263" cy="263.958" gradientTransform="matrix(1 0 0 1.573 0 -151.187)" gradientUnits="userSpaceOnUse" r="139.389" xlink:href="#lg2"/><g><path d="m291.374 22.935-74.018.552c-120.942.903-218.252 99.677-217.35 220.618l89.836 23.335z" fill="url(#SVGID_1_)"/><path d="m74.024 243.553-74.018.552c.903 120.941 99.677 218.252 220.618 217.35l74.018-.552z" fill="url(#SVGID_2_)"/><circle cx="293.008" cy="241.919" fill="url(#SVGID_3_)" r="218.99"/><path d="m149.455 177.666c1.236-.331 2.346-1.134 3.036-2.329 11.965-20.725 35.118-32.818 58.971-30.806 2.75.231 5.171-1.811 5.402-4.563.231-2.751-1.811-5.17-4.562-5.402-27.702-2.332-54.579 11.707-68.471 35.77-1.381 2.392-.562 5.45 1.83 6.83 1.195.69 2.558.831 3.794.5z" fill="url(#SVGID_4_)"/><path d="m217.813 190.565c-16.312 0-31.875 3.666-46.094 10.315-5.731 2.68-10.388-5.168-5.273-8.892 14.844-10.809 32.466-17.071 51.367-17.071 18.902 0 36.524 6.262 51.367 17.071 5.114 3.724.458 11.572-5.273 8.892-14.219-6.649-29.781-10.315-46.094-10.315z" fill="url(#SVGID_5_)"/><path d="m436.561 177.666c-1.236-.331-2.346-1.134-3.036-2.329-11.965-20.725-35.118-32.818-58.971-30.806-2.75.231-5.171-1.811-5.402-4.563-.231-2.751 1.811-5.17 4.562-5.402 27.702-2.332 54.579 11.707 68.471 35.77 1.381 2.392.562 5.45-1.83 6.83-1.195.69-2.558.831-3.794.5z" fill="url(#SVGID_6_)"/><path d="m368.203 190.565c16.312 0 31.875 3.666 46.094 10.315 5.731 2.68 10.388-5.168 5.273-8.892-14.844-10.809-32.466-17.071-51.367-17.071s-36.524 6.262-51.367 17.071c-5.114 3.724-.458 11.572 5.273 8.892 14.219-6.649 29.781-10.315 46.094-10.315z" fill="url(#SVGID_7_)"/><path d="m260.121 489.017c125.569-.937 227.269-14.168 227.154-29.552l-454.725 3.394c.115 15.384 102.002 27.095 227.571 26.158z" fill="url(#SVGID_8_)"/><path d="m335.835 309.305c0 36.555-19.174 66.189-42.827 66.189s-42.827-29.634-42.827-66.189c0-7.092.722-13.923 2.058-20.328 0 0 21.706-41.507 40.77-41.507s40.77 41.507 40.77 41.507c1.335 6.405 2.056 13.236 2.056 20.328z" fill="url(#SVGID_9_)"/><path d="m252.247 288.978c5.529 2.707 11.732 4.232 18.264 4.232h44.994c6.532 0 12.735-1.526 18.264-4.232-5.551-26.608-21.698-45.862-40.761-45.862s-35.209 19.255-40.761 45.862z" fill="url(#SVGID_10_)"/><path d="m221.423 455.791v-269.264c0-1.985-1.624-3.609-3.609-3.609-16.012 0-31.103 4.5-44.367 12.446-1.08.647-1.727 1.828-1.727 3.087v234.008c0 .512.256.992.684 1.274 14.546 9.615 30.303 17.54 46.99 23.495.986.352 2.029-.389 2.029-1.437z" fill="url(#SVGID_11_)"/><path d="m412.57 195.363c-13.264-7.946-28.355-12.446-44.367-12.446h-.036c-1.973 0-3.573 1.6-3.573 3.573v269.301c0 1.048 1.042 1.789 2.029 1.437 16.696-5.957 32.452-13.881 46.991-23.492.427-.282.684-.762.684-1.274v-234.012c-.001-1.259-.648-2.44-1.728-3.087z" fill="url(#SVGID_12_)"/></g></svg>