<svg id="Capa_1" enable-background="new 0 0 512 512" height="512" viewBox="0 0 512 512" width="512" xmlns="http://www.w3.org/2000/svg" xmlns:xlink="http://www.w3.org/1999/xlink"><radialGradient id="SVGID_1_" cx="72.638" cy="63.551" gradientTransform="matrix(.707 -.707 .553 .553 -13.887 79.752)" gradientUnits="userSpaceOnUse" r="226.024"><stop offset=".0132" stop-color="#fffbe4"/><stop offset=".6064" stop-color="#f9efaf"/><stop offset=".7207" stop-color="#f9eeab"/><stop offset=".8394" stop-color="#f8ec9e"/><stop offset=".9597" stop-color="#f7e98a"/><stop offset="1" stop-color="#f6e781"/></radialGradient><radialGradient id="SVGID_2_" cx="-18.307" cy="255.964" gradientTransform="matrix(1 0 0 .66 0 86.958)" gradientUnits="userSpaceOnUse" r="405.566"><stop offset="0" stop-color="#f6e266"/><stop offset=".1349" stop-color="#f5dc60"/><stop offset=".3156" stop-color="#f0cb51"/><stop offset=".5216" stop-color="#e9af37"/><stop offset=".5854" stop-color="#e7a52e"/><stop offset="1" stop-color="#e7a52e"/></radialGradient><radialGradient id="SVGID_3_" cx="334.494" cy="267.854" gradientUnits="userSpaceOnUse" r="373.342"><stop offset="0" stop-color="#f6e266"/><stop offset=".377" stop-color="#f4dd45"/><stop offset=".4963" stop-color="#f2d340"/><stop offset=".6976" stop-color="#ecb934"/><stop offset=".8996" stop-color="#e49824"/></radialGradient><radialGradient id="SVGID_4_" cx="276.485" cy="2113.392" gradientTransform="matrix(.931 0 0 .112 -2.094 225.201)" gradientUnits="userSpaceOnUse" r="234.348"><stop offset="0" stop-color="#ecb780"/><stop offset=".3347" stop-color="#faddb9"/><stop offset=".4962" stop-color="#ffecd0"/><stop offset=".888" stop-color="#fff"/></radialGradient><radialGradient id="SVGID_5_" cx="255.656" cy="-9.479" gradientTransform="matrix(-1 0 0 -.438 586.02 345.378)" gradientUnits="userSpaceOnUse" r="160.52"><stop offset="0" stop-color="#d8aa8b"/><stop offset=".2127" stop-color="#cc9772"/><stop offset=".5905" stop-color="#b16e3d"/><stop offset=".6258" stop-color="#ad6b3b"/><stop offset="1" stop-color="#804f2b"/></radialGradient><radialGradient id="SVGID_6_" cx="252.296" cy="231.953" gradientTransform="matrix(1 0 0 1.839 0 -194.595)" gradientUnits="userSpaceOnUse" r="60.658"><stop offset="0" stop-color="#c6865c"/><stop offset=".4963" stop-color="#c17d4f"/><stop offset=".7528" stop-color="#a86b3f"/><stop offset="1" stop-color="#8b572e"/></radialGradient><radialGradient id="SVGID_7_" cx="393.018" cy="234.363" gradientTransform="matrix(1 0 0 1.839 0 -196.617)" gradientUnits="userSpaceOnUse" r="60.658"><stop offset="0" stop-color="#c6865c"/><stop offset=".5808" stop-color="#c17d4f"/><stop offset=".7775" stop-color="#aa6d41"/><stop offset="1" stop-color="#8b572e"/></radialGradient><g><path d="m293.01 23.082h-74.02c-120.945 0-218.99 98.045-218.99 218.99l89.659 24.005z" fill="url(#SVGID_1_)"/><path d="m74.02 242.072h-74.02c0 120.945 98.045 218.99 218.99 218.99h74.02z" fill="url(#SVGID_2_)"/><circle cx="293.01" cy="242.072" fill="url(#SVGID_3_)" r="218.99"/><path d="m258.279 488.918c125.572 0 227.368-12.472 227.368-27.856h-454.736c0 15.385 101.796 27.856 227.368 27.856z" fill="url(#SVGID_4_)"/><path d="m293.01 312.694c42.257 0 81.479 14.841 113.912 40.204 3.252 2.543 7.475-1.683 4.946-4.947-29.085-37.536-71.554-61.196-118.858-61.196s-89.773 23.661-118.858 61.196c-2.529 3.263 1.694 7.49 4.946 4.947 32.433-25.363 71.654-40.204 113.912-40.204z" fill="url(#SVGID_5_)"/><path d="m223.011 254.02c-12.576 0-22.771-10.195-22.771-22.771v-58.011c0-12.576 10.195-22.771 22.771-22.771 12.576 0 22.771 10.195 22.771 22.771v58.011c-.001 12.576-10.195 22.771-22.771 22.771z" fill="url(#SVGID_6_)"/><path d="m363.009 254.02c-12.576 0-22.771-10.195-22.771-22.771v-58.011c0-12.576 10.195-22.771 22.771-22.771 12.576 0 22.771 10.195 22.771 22.771v58.011c0 12.576-10.195 22.771-22.771 22.771z" fill="url(#SVGID_7_)"/></g></svg>