<svg id="Capa_1" enable-background="new 0 0 512 512" height="512" viewBox="0 0 512 512" width="512" xmlns="http://www.w3.org/2000/svg" xmlns:xlink="http://www.w3.org/1999/xlink"><radialGradient id="SVGID_1_" cx="72.638" cy="63.551" gradientTransform="matrix(.707 -.707 .553 .553 -13.887 79.752)" gradientUnits="userSpaceOnUse" r="226.024"><stop offset=".0132" stop-color="#fffbe4"/><stop offset=".6064" stop-color="#f9efaf"/><stop offset=".7207" stop-color="#f9eeab"/><stop offset=".8394" stop-color="#f8ec9e"/><stop offset=".9597" stop-color="#f7e98a"/><stop offset="1" stop-color="#f6e781"/></radialGradient><radialGradient id="SVGID_2_" cx="-18.307" cy="255.964" gradientTransform="matrix(1 0 0 .66 0 86.958)" gradientUnits="userSpaceOnUse" r="405.566"><stop offset="0" stop-color="#f6e266"/><stop offset=".1349" stop-color="#f5dc60"/><stop offset=".3156" stop-color="#f0cb51"/><stop offset=".5216" stop-color="#e9af37"/><stop offset=".5854" stop-color="#e7a52e"/><stop offset="1" stop-color="#e7a52e"/></radialGradient><radialGradient id="SVGID_3_" cx="334.494" cy="267.854" gradientUnits="userSpaceOnUse" r="373.342"><stop offset="0" stop-color="#f6e266"/><stop offset=".377" stop-color="#f4dd45"/><stop offset=".4963" stop-color="#f2d340"/><stop offset=".6976" stop-color="#ecb934"/><stop offset=".8996" stop-color="#e49824"/></radialGradient><radialGradient id="SVGID_4_" cx="276.485" cy="467.53" gradientTransform="matrix(.931 0 0 .112 -2.094 409.074)" gradientUnits="userSpaceOnUse" r="234.348"><stop offset="0" stop-color="#ecb780"/><stop offset=".3347" stop-color="#faddb9"/><stop offset=".4962" stop-color="#ffecd0"/><stop offset=".888" stop-color="#fff"/></radialGradient><radialGradient id="SVGID_5_" cx="337.692" cy="387.91" gradientTransform="matrix(1 0 0 .471 0 205.04)" gradientUnits="userSpaceOnUse" r="203.879"><stop offset="0" stop-color="#d8aa8b"/><stop offset=".1426" stop-color="#cd9975"/><stop offset=".4378" stop-color="#b97a4d"/><stop offset=".5905" stop-color="#b16e3d"/><stop offset=".6258" stop-color="#ad6b3b"/><stop offset="1" stop-color="#804f2b"/></radialGradient><radialGradient id="SVGID_6_" cx="252.296" cy="209.844" gradientTransform="matrix(1 0 0 1.839 0 -176.047)" gradientUnits="userSpaceOnUse" r="60.658"><stop offset="0" stop-color="#c6865c"/><stop offset=".4963" stop-color="#c17d4f"/><stop offset=".7528" stop-color="#a86b3f"/><stop offset="1" stop-color="#8b572e"/></radialGradient><radialGradient id="SVGID_7_" cx="393.018" cy="212.253" gradientTransform="matrix(1 0 0 1.839 0 -178.068)" gradientUnits="userSpaceOnUse" r="60.658"><stop offset="0" stop-color="#c6865c"/><stop offset=".5808" stop-color="#c17d4f"/><stop offset=".7775" stop-color="#aa6d41"/><stop offset="1" stop-color="#8b572e"/></radialGradient><radialGradient id="SVGID_8_" cx="321.358" cy="317.033" gradientTransform="matrix(1 0 0 .254 0 236.66)" gradientUnits="userSpaceOnUse" r="204.3"><stop offset="0" stop-color="#ffece7"/><stop offset=".377" stop-color="#fbe2da"/><stop offset=".5212" stop-color="#f7dcd4"/><stop offset=".7075" stop-color="#eaccc4"/><stop offset=".916" stop-color="#d5b2aa"/><stop offset="1" stop-color="#cba59d"/></radialGradient><radialGradient id="SVGID_9_" cx="329.203" cy="368.58" gradientTransform="matrix(1 0 0 .32 0 250.738)" gradientUnits="userSpaceOnUse" r="108.856"><stop offset="0" stop-color="#ffdace"/><stop offset=".2521" stop-color="#ffcab6"/><stop offset=".4183" stop-color="#ffc3ac"/><stop offset=".6218" stop-color="#f6ad8c"/><stop offset="1" stop-color="#e27d47"/></radialGradient><g><path d="m293.01 23.082h-74.02c-120.945 0-218.99 98.045-218.99 218.99l89.659 24.005z" fill="url(#SVGID_1_)"/><path d="m74.02 242.072h-74.02c0 120.945 98.045 218.99 218.99 218.99h74.02z" fill="url(#SVGID_2_)"/><circle cx="293.01" cy="242.072" fill="url(#SVGID_3_)" r="218.99"/><path d="m258.279 488.918c125.572 0 227.368-12.472 227.368-27.856h-454.736c0 15.385 101.796 27.856 227.368 27.856z" fill="url(#SVGID_4_)"/><path d="m421.964 266.832c0 44.17-22.208 83.154-56.067 106.394-20.735 14.232-45.839 14.903-72.888 14.903s-52.153-.671-72.888-14.903c-33.859-23.24-56.067-62.224-56.067-106.394h5.099l123.857 24.168 123.855-24.168z" fill="url(#SVGID_5_)"/><path d="m223.011 231.91c-12.576 0-22.771-10.195-22.771-22.771v-58.011c0-12.576 10.195-22.771 22.771-22.771 12.576 0 22.771 10.195 22.771 22.771v58.011c-.001 12.576-10.195 22.771-22.771 22.771z" fill="url(#SVGID_6_)"/><path d="m363.009 231.91c-12.576 0-22.771-10.195-22.771-22.771v-58.011c0-12.576 10.195-22.771 22.771-22.771 12.576 0 22.771 10.195 22.771 22.771v58.011c0 12.576-10.195 22.771-22.771 22.771z" fill="url(#SVGID_7_)"/><path d="m169.155 266.832v5c.006.139.011.279.017.418.95 22.007 19.313 39.248 41.34 39.248h164.994c22.027 0 40.39-17.241 41.34-39.248.006-.139.012-.279.017-.418v-5z" fill="url(#SVGID_8_)"/><path d="m220.127 373.22c20.735 14.232 45.834 22.567 72.883 22.567s52.148-8.334 72.883-22.567c-13.592-15.948-41.116-26.865-72.883-26.865-31.768-.001-59.291 10.916-72.883 26.865z" fill="url(#SVGID_9_)"/></g></svg>